<svg width="29" height="30" viewBox="0 0 29 30" fill="none" xmlns="http://www.w3.org/2000/svg">
<path d="M0.703125 4.98707C0.703125 4.67465 0.827251 4.37511 1.04817 4.1542C1.26908 3.93328 1.56869 3.80908 1.88111 3.80908H26.6189C26.9313 3.80908 27.2309 3.93328 27.4518 4.1542C27.6727 4.37511 27.7969 4.67465 27.7969 4.98707V27.3689C27.7969 27.6813 27.6727 27.9808 27.4518 28.2017C27.2309 28.4227 26.9313 28.5469 26.6189 28.5469H1.88111C1.56869 28.5469 1.26908 28.4227 1.04817 28.2017C0.827251 27.9808 0.703125 27.6813 0.703125 27.3689V4.98707Z" stroke="#E30612" stroke-linecap="round" stroke-linejoin="round"/>
<path d="M6.59277 1.45312V7.34307" stroke="#E30612" stroke-linecap="round" stroke-linejoin="round"/>
<path d="M21.9075 1.45312V7.34307" stroke="#E30612" stroke-linecap="round" stroke-linejoin="round"/>
<path d="M0.703125 9.69946H27.7969" stroke="#E30612" stroke-linecap="round" stroke-linejoin="round"/>
<path d="M7.77075 23.2463H13.6607" stroke="#E30612" stroke-linecap="round" stroke-linejoin="round"/>
<path d="M10.7157 23.2454V14.4105C10.7159 14.3001 10.6851 14.1919 10.6268 14.0982C10.5685 14.0044 10.485 13.929 10.3859 13.8804C10.2854 13.8335 10.1739 13.8151 10.0637 13.8275C9.95355 13.84 9.84896 13.8829 9.76156 13.9512L7.77075 15.5413" stroke="#E30612" stroke-linecap="round" stroke-linejoin="round"/>
<path d="M18.3728 23.246L21.8243 14.7055C21.8798 14.6173 21.9092 14.5152 21.9092 14.411C21.9092 14.3068 21.8798 14.2048 21.8243 14.1165C21.7637 14.0254 21.6814 13.9508 21.5847 13.8994C21.4881 13.848 21.3802 13.8213 21.2707 13.822H16.5587C16.4025 13.822 16.2527 13.8841 16.1422 13.9946C16.0318 14.1051 15.9697 14.2548 15.9697 14.411V15.589" stroke="#E30612" stroke-linecap="round" stroke-linejoin="round"/>
</svg>
