<svg width="34" height="40" viewBox="0 0 34 40" fill="none" xmlns="http://www.w3.org/2000/svg">
<path d="M31.3157 7.60864V34.0434C31.3157 35.358 30.7833 36.6187 29.8358 37.5482C28.8882 38.4778 27.6031 39 26.263 39H7.73671C6.39667 39 5.11151 38.4778 4.16396 37.5482C3.21641 36.6187 2.68408 35.358 2.68408 34.0434V7.60864" stroke="#E30612" stroke-linecap="round" stroke-linejoin="round"/>
<path d="M33 6.78261C33 7.0017 32.9113 7.21186 32.7533 7.36678C32.5954 7.5217 32.3812 7.6087 32.1579 7.6087H1.84211C1.62011 7.60447 1.40841 7.51605 1.25141 7.36204C1.09441 7.20802 1.00431 7.00038 1 6.78261V3.47826C1 2.82099 1.26615 2.19062 1.73993 1.72585C2.2137 1.26109 2.8563 1 3.52632 1H30.4737C31.1437 1 31.7862 1.26109 32.26 1.72585C32.7338 2.19062 33 2.82099 33 3.47826V6.78261Z" stroke="#E30612" stroke-linecap="round" stroke-linejoin="round"/>
<path d="M6.05273 13.3913C6.05273 13.1722 6.14144 12.962 6.29937 12.8071C6.45729 12.6522 6.6715 12.5652 6.89484 12.5652H27.1054C27.3287 12.5652 27.5429 12.6522 27.7008 12.8071C27.8587 12.962 27.9475 13.1722 27.9475 13.3913V33.2174C27.9475 33.4365 27.8587 33.6466 27.7008 33.8015C27.5429 33.9565 27.3287 34.0434 27.1054 34.0434H6.89484C6.67285 34.0392 6.46115 33.9508 6.30415 33.7968C6.14715 33.6428 6.05705 33.4351 6.05273 33.2174V13.3913Z" stroke="#E30612" stroke-linecap="round" stroke-linejoin="round"/>
<path d="M24.579 21.6521C24.579 21.433 24.4903 21.2229 24.3324 21.0679C24.1745 20.913 23.9603 20.826 23.7369 20.826H19.5264V16.6956C19.5264 16.4765 19.4377 16.2663 19.2797 16.1114C19.1218 15.9565 18.9076 15.8695 18.6843 15.8695H15.3159C15.0925 15.8695 14.8783 15.9565 14.7204 16.1114C14.5625 16.2663 14.4738 16.4765 14.4738 16.6956V20.826H10.2632C10.0399 20.826 9.8257 20.913 9.66778 21.0679C9.50985 21.2229 9.42114 21.433 9.42114 21.6521V24.9565C9.42545 25.1742 9.51556 25.3819 9.67256 25.5359C9.82956 25.6899 10.0413 25.7783 10.2632 25.7825H14.4738V29.913C14.4781 30.1308 14.5682 30.3384 14.7252 30.4924C14.8822 30.6464 15.0939 30.7348 15.3159 30.7391H18.6843C18.9076 30.7391 19.1218 30.6521 19.2797 30.4972C19.4377 30.3422 19.5264 30.1321 19.5264 29.913V25.7825H23.7369C23.9603 25.7825 24.1745 25.6956 24.3324 25.5406C24.4903 25.3857 24.579 25.1756 24.579 24.9565V21.6521Z" stroke="#E30612" stroke-linecap="round" stroke-linejoin="round"/>
<path d="M6.89478 7.6087V1" stroke="#E30612" stroke-linecap="round" stroke-linejoin="round"/>
<path d="M11.9473 7.6087V1" stroke="#E30612" stroke-linecap="round" stroke-linejoin="round"/>
<path d="M17 7.6087V1" stroke="#E30612" stroke-linecap="round" stroke-linejoin="round"/>
<path d="M22.0525 7.6087V1" stroke="#E30612" stroke-linecap="round" stroke-linejoin="round"/>
<path d="M27.1052 7.6087V1" stroke="#E30612" stroke-linecap="round" stroke-linejoin="round"/>
</svg>
