<svg width="44" height="45" viewBox="0 0 44 45" fill="none" xmlns="http://www.w3.org/2000/svg">
<path d="M6.30279 41.3937C6.34708 41.8355 6.55406 42.2449 6.88332 42.542C7.21259 42.839 7.64049 43.0022 8.08346 43H36.9304C37.3733 43.0022 37.8012 42.839 38.1304 42.542C38.4597 42.2449 38.6667 41.8355 38.711 41.3937L41.9162 10.0862C41.9488 9.78718 41.9055 9.48494 41.7903 9.20722C41.6751 8.9295 41.4918 8.68549 41.2574 8.49779C35.8792 4.2872 29.2509 2 22.4268 2C15.6026 2 8.97436 4.2872 3.59619 8.49779C3.36174 8.68549 3.17839 8.9295 3.06321 9.20722C2.94802 9.48494 2.9047 9.78718 2.9373 10.0862L6.30279 41.3937Z" stroke="#E30612" stroke-linecap="round" stroke-linejoin="round"/>
<path d="M37.1975 9.87171C37.3185 9.95553 37.4174 10.068 37.4856 10.1985C37.5538 10.3291 37.5894 10.4743 37.5893 10.6217V15.3337C37.5893 15.5704 37.4955 15.7973 37.3285 15.9647C37.1615 16.132 36.9351 16.2261 36.699 16.2261H8.20821C7.9735 16.2216 7.74965 16.1263 7.58366 15.9599C7.41766 15.7935 7.32243 15.5689 7.31787 15.3337V10.6217C7.32121 10.473 7.36017 10.3273 7.43145 10.1968C7.50272 10.0663 7.60419 9.95462 7.72739 9.87171C10.8946 7.81687 14.4549 6.44755 18.1804 5.85128C21.9059 5.25501 25.7145 5.44501 29.3626 6.40907C32.145 7.12777 34.7915 8.29733 37.1975 9.87171V9.87171Z" stroke="#E30612" stroke-linecap="round" stroke-linejoin="round"/>
<path d="M10.4873 33.7542C10.5369 34.8478 11.0178 35.8765 11.8243 36.6146C12.6307 37.3527 13.6967 37.7398 14.7876 37.6901C15.8786 37.6404 16.9051 37.1581 17.6414 36.3497C18.3778 35.5413 18.7636 34.473 18.714 33.3795V26.1504C18.6597 24.967 18.1386 23.8535 17.2653 23.0552C16.3921 22.2568 15.2382 21.839 14.0575 21.8934C12.8769 21.9478 11.7661 22.47 10.9697 23.3454C10.1732 24.2207 9.75631 25.3775 9.81062 26.5609L10.4873 33.7542Z" stroke="#E30612" stroke-linecap="round" stroke-linejoin="round"/>
<path d="M34.4375 33.7544C34.3879 34.8479 33.907 35.8767 33.1005 36.6148C32.2941 37.3529 31.2281 37.74 30.1372 37.6903C29.0463 37.6406 28.0197 37.1583 27.2834 36.3499C26.5471 35.5415 26.1612 34.4732 26.2108 33.3796V26.1506C26.2045 25.3449 26.4187 24.553 26.8299 23.8607C27.2412 23.1684 27.8338 22.6023 28.5435 22.2239C29.2511 21.8371 30.0506 21.6511 30.8559 21.6857C31.6611 21.7203 32.4418 21.974 33.1138 22.42C33.7859 22.866 34.3239 23.4875 34.6701 24.2171C35.0162 24.9467 35.1575 25.7571 35.0786 26.5611L34.4375 33.7544Z" stroke="#E30612" stroke-linecap="round" stroke-linejoin="round"/>
<path d="M20.6729 16.2261L22.4535 10.8713L24.2342 16.2261" stroke="#E30612" stroke-linecap="round" stroke-linejoin="round"/>
<path d="M22.4534 8.19398V5.5166" stroke="#E30612" stroke-linecap="round" stroke-linejoin="round"/>
<path d="M26.9053 8.60449L27.4039 5.98071" stroke="#E30612" stroke-linecap="round" stroke-linejoin="round"/>
<path d="M31.2322 9.83651L32.1938 7.35522" stroke="#E30612" stroke-linecap="round" stroke-linejoin="round"/>
<path d="M18.0018 8.60449L17.521 5.98071" stroke="#E30612" stroke-linecap="round" stroke-linejoin="round"/>
<path d="M13.7104 9.83651L12.731 7.35522" stroke="#E30612" stroke-linecap="round" stroke-linejoin="round"/>
</svg>
