<svg width="260" height="222" viewBox="0 0 260 222" fill="none" xmlns="http://www.w3.org/2000/svg">
<mask id="mask0_22:1644" style="mask-type:alpha" maskUnits="userSpaceOnUse" x="0" y="0" width="260" height="222">
<rect width="259.902" height="222" rx="15.4704" fill="white"/>
</mask>
<g mask="url(#mask0_22:1644)">
<path d="M175.041 14.6207C173.65 11.839 170.333 10.1272 167.231 10.6621C163.7 7.77342 158.03 7.77342 154.606 10.7691C151.931 9.16428 148.401 9.05729 145.619 10.4482C142.837 11.946 140.911 14.9417 140.697 18.0444C137.595 17.5094 134.171 19.1143 132.673 22.003C131.175 24.7847 131.71 28.5294 133.85 30.8831C130.426 31.953 128.073 35.8046 128.822 39.3353C129.57 42.8659 133.208 45.5407 136.739 45.2197L173.543 23.2869C175.79 21.0401 176.432 17.4025 175.041 14.6207Z" fill="#E0E0E0"/>
<path d="M135.668 46.1835C137.166 30.0281 150.968 17.7243 167.123 17.9383H168.728C186.167 19.2222 194.727 34.7356 193.015 52.0679L189.698 110.056L189.484 112.838L149.149 120.327L149.47 105.563C149.47 105.563 132.78 102.674 132.78 85.9835C132.78 77.8523 134.171 61.162 135.668 46.1835Z" fill="#FFBE9D"/>
<path d="M149.256 105.456C149.256 105.456 159.955 106.205 171.296 99.3574C171.296 99.3574 165.946 111.34 149.256 109.628V105.456Z" fill="#EB996E"/>
<path d="M142.195 61.6967C142.088 62.9806 143.158 64.0505 144.442 64.1575C145.726 64.2645 146.902 63.3016 146.902 62.0177C147.009 60.7338 145.94 59.6639 144.656 59.5569C143.372 59.45 142.302 60.4129 142.195 61.6967Z" fill="#263238"/>
<path d="M139.093 54.4221C139.414 54.7431 141.233 53.4592 143.8 53.4592C146.368 53.4592 148.187 54.8501 148.508 54.5291C148.615 54.4221 148.401 53.7802 147.545 53.2452C146.796 52.6033 145.405 52.0684 143.8 52.0684C142.195 52.0684 140.805 52.6033 140.056 53.2452C139.2 53.6732 138.986 54.2081 139.093 54.4221Z" fill="#263238"/>
<path d="M166.16 62.2326C166.053 63.5164 167.123 64.5863 168.407 64.6933C169.691 64.8003 170.868 63.8374 170.868 62.5535C170.975 61.2697 169.905 60.1998 168.621 60.0928C167.337 60.0928 166.16 61.0557 166.16 62.2326Z" fill="#263238"/>
<path d="M164.342 55.2776C164.663 55.5986 166.482 54.3147 169.049 54.3147C171.617 54.3147 173.436 55.7055 173.757 55.3846C173.864 55.2776 173.65 54.6357 172.794 54.1007C172.045 53.4588 170.654 52.9238 169.049 52.9238C167.445 52.9238 166.054 53.4588 165.305 54.1007C164.556 54.5287 164.235 55.0636 164.342 55.2776Z" fill="#263238"/>
<path d="M154.713 74.2148C154.713 74.1078 153.108 73.7868 150.54 73.3589C149.898 73.2519 149.256 73.1449 149.149 72.7169C149.042 72.289 149.256 71.5401 149.577 70.7911C150.219 69.1863 150.861 67.5814 151.61 65.8696C154.392 58.8083 156.424 52.9239 156.21 52.8169C155.889 52.7099 153.429 58.3804 150.647 65.4417C150.005 67.1535 149.363 68.8653 148.721 70.4702C148.507 71.2191 147.972 72.075 148.293 73.0379C148.507 73.5728 148.935 73.8938 149.363 74.0008C149.791 74.1078 150.112 74.1078 150.433 74.2148C153.108 74.3218 154.713 74.3218 154.713 74.2148Z" fill="#263238"/>
<path d="M162.309 76.0342C161.881 76.0342 161.881 78.8159 159.42 80.7417C156.959 82.6675 154.071 82.3466 153.964 82.7745C153.964 82.9885 154.606 83.3095 155.889 83.4164C157.173 83.5234 158.885 83.0955 160.383 81.9186C161.881 80.7417 162.523 79.1369 162.63 77.96C162.844 76.7831 162.523 76.0342 162.309 76.0342Z" fill="#263238"/>
<path d="M163.807 45.1132C164.021 45.8621 166.588 45.5411 169.584 45.9691C172.58 46.29 175.041 47.2529 175.468 46.611C175.682 46.29 175.255 45.6481 174.292 45.0062C173.329 44.3642 171.831 43.6153 170.012 43.4013C168.193 43.1873 166.588 43.4013 165.411 43.8293C164.342 44.2572 163.807 44.7922 163.807 45.1132Z" fill="#E0E0E0"/>
<path d="M140.162 46.9331C140.59 47.575 142.409 46.9331 144.549 46.9331C146.689 46.8261 148.507 47.361 148.935 46.8261C149.149 46.5051 148.828 45.9702 148.079 45.3282C147.331 44.7933 146.047 44.2583 144.549 44.3653C143.051 44.3653 141.767 44.9003 141.018 45.5422C140.269 46.0772 139.948 46.7191 140.162 46.9331Z" fill="#E0E0E0"/>
<path d="M137.381 38.4806C137.381 38.4806 141.981 28.1027 147.01 25.6419C153.215 22.7532 155.676 29.4935 161.56 27.9957C167.444 26.4978 173.329 23.7161 179.213 28.3166C185.633 33.3451 182.53 36.7688 182.851 44.151C184.028 74.322 189.377 82.8812 191.196 68.7586C191.41 67.2607 195.69 66.0839 196.439 59.4505C197.402 50.9984 197.829 40.6204 196.011 34.522C194.513 29.3865 191.624 25.8559 186.489 21.8973C178.357 15.6919 167.124 15.3709 159.42 16.0129C151.717 16.7618 136.846 25.3209 137.381 38.4806Z" fill="#E0E0E0"/>
<path d="M190.126 68.3316C190.233 65.7638 192.48 63.731 195.047 64.052C198.15 64.3729 201.574 66.1918 201.36 72.6111C200.825 84.059 189.484 81.1703 189.484 80.8493C189.377 80.6353 189.805 73.1461 190.126 68.3316Z" fill="#FFBE9D"/>
<path d="M192.159 76.6764C192.159 76.6764 192.373 76.7834 192.694 76.9974C193.015 77.2114 193.55 77.3184 194.191 77.1044C195.368 76.6764 196.545 74.8576 196.652 72.8248C196.759 71.7549 196.545 70.792 196.224 69.9361C195.903 69.0802 195.368 68.4382 194.833 68.3313C194.192 68.1173 193.764 68.5452 193.657 68.8662C193.443 69.1872 193.55 69.4012 193.443 69.4012C193.443 69.4012 193.229 69.1872 193.336 68.7592C193.443 68.5452 193.55 68.2243 193.871 68.1173C194.192 67.9033 194.512 67.7963 194.94 67.9033C195.796 68.0103 196.545 68.8662 196.973 69.7221C197.401 70.685 197.615 71.7549 197.508 72.9318C197.294 75.2856 196.01 77.3184 194.405 77.7463C193.55 77.9603 192.908 77.6393 192.587 77.3184C192.159 76.8904 192.052 76.6764 192.159 76.6764Z" fill="#EB996E"/>
<path d="M190.233 46.1833C188.735 47.1462 187.13 48.2161 185.312 48.3231C183.493 48.4301 181.46 47.4672 181.246 45.6484C181.139 44.8995 181.353 43.9366 180.818 43.2946C180.176 42.5457 178.999 42.7597 178.036 42.8667C174.72 43.1876 171.296 40.7269 170.547 37.5172C169.691 38.8011 167.658 38.6941 166.481 37.8382C165.198 36.9822 164.449 35.5914 163.379 34.4145C162.416 33.2376 161.025 32.1677 159.527 32.3817C158.671 32.4887 157.922 33.0236 157.066 32.9166C155.569 32.8097 154.82 30.9908 154.606 29.493C154.392 27.9951 154.285 26.2833 153.001 25.4274C151.824 24.6785 150.326 25.1064 148.935 25.2134C147.544 25.4274 145.726 24.9994 145.405 23.7156C145.191 22.9666 145.512 22.2177 145.939 21.6828C147.758 18.901 151.717 17.7242 154.713 19.008C155.889 15.2634 159.42 12.3747 163.379 11.9467C167.337 11.6258 171.296 13.7656 173.222 17.2962C175.683 15.1564 179.213 14.3005 182.423 15.0494C185.633 15.7984 188.307 18.2591 189.484 21.2548C192.266 20.6129 195.476 21.6828 197.187 24.0365C198.899 26.2833 199.113 29.707 197.722 32.1677C199.755 33.3446 201.467 35.4844 201.467 37.8382C201.467 40.1919 199.113 42.5457 196.866 41.9038C197.722 43.7226 196.973 46.2903 195.155 47.2532C193.336 48.2161 190.768 47.5742 189.698 45.8624" fill="#E0E0E0"/>
<path d="M197.615 41.7969C197.615 41.7969 197.829 42.7598 196.867 43.9367C196.439 44.4716 195.583 45.1135 194.513 45.2205C193.443 45.3275 192.266 45.1135 191.303 44.2576L191.838 44.1506C191.303 45.1135 190.447 46.0764 189.484 46.9324C188.842 47.4673 188.2 47.8953 187.345 48.2162C186.596 48.5372 185.74 48.5372 184.991 48.4302C183.493 48.2162 182.316 47.4673 181.674 46.5044C181.032 45.5415 180.925 44.6856 180.818 44.1506C180.711 43.6157 180.711 43.1877 180.711 43.1877C180.711 43.1877 180.818 43.5087 181.032 44.0437C181.246 44.5786 181.46 45.4345 182.102 46.1834C183.172 47.7883 186.703 48.7512 188.949 46.3974C189.912 45.6485 190.554 44.6856 191.196 43.7227L191.41 43.4017L191.731 43.7227C192.48 44.4716 193.55 44.7926 194.513 44.6856C195.369 44.5786 196.118 44.1506 196.653 43.6157C197.508 42.7598 197.509 41.7969 197.615 41.7969Z" fill="white"/>
<path d="M176.324 15.3705C176.324 15.3705 176.004 15.4775 175.469 15.6915C174.934 15.9055 174.185 16.3334 173.65 17.1893L173.543 17.4033L173.436 17.1893C172.366 15.6915 170.654 13.8727 167.979 12.5888C166.695 11.9468 165.091 11.5189 163.486 11.5189C161.881 11.5189 160.169 11.9468 158.671 12.8028C157.494 13.5517 156.531 14.4076 155.783 15.4775C155.034 16.5474 154.606 17.7243 154.499 18.9012V19.2221L154.178 19.1151C152.466 18.5802 150.754 18.9012 149.363 19.6501C148.079 20.399 147.223 21.4689 146.688 22.4318C145.726 24.4646 146.047 25.8555 145.94 25.8555C145.94 25.8555 145.833 25.5345 145.833 24.8926C145.833 24.2506 145.94 23.3947 146.367 22.3248C146.795 21.2549 147.651 20.078 149.149 19.3291C150.54 18.5802 152.466 18.1522 154.285 18.6872L153.857 18.9012C153.964 17.6173 154.499 16.3334 155.248 15.1565C155.997 13.9796 157.066 13.0167 158.35 12.2678C159.955 11.3049 161.774 10.877 163.593 10.877C165.305 10.877 166.909 11.4119 168.3 12.0538C171.082 13.4447 172.794 15.3705 173.864 16.9753H173.543C174.185 16.0124 175.041 15.6915 175.576 15.4775C176.004 15.2635 176.324 15.3705 176.324 15.3705Z" fill="white"/>
<path d="M166.267 77.745C166.053 77.745 166.053 76.5681 165.09 75.4982C164.128 74.4283 162.951 74.3213 162.951 74.1074C162.951 74.0004 163.272 73.8934 163.807 74.0004C164.342 74.1074 164.983 74.4283 165.518 75.0703C166.053 75.7122 166.374 76.3541 166.374 76.8891C166.374 77.531 166.267 77.745 166.267 77.745Z" fill="#EB996E"/>
<path d="M167.23 74.6422C167.016 74.7492 166.696 74.3212 166.054 74.1072C165.412 73.7863 164.877 73.7863 164.877 73.5723C164.877 73.3583 165.519 73.1443 166.375 73.5723C167.23 73.8932 167.444 74.5352 167.23 74.6422Z" fill="#EB996E"/>
<path d="M180.604 101.603C180.604 101.496 180.818 101.496 180.925 101.282C181.032 101.068 181.139 100.64 180.925 100.319C180.711 99.8915 180.283 99.4635 179.855 98.7146C179.641 98.3937 179.641 97.7517 179.855 97.4307C180.069 97.0028 180.39 96.7888 180.604 96.4678C181.46 95.291 178.892 94.542 179.213 93.0442C179.32 92.4022 179.641 91.9743 179.855 91.8673C180.069 91.6533 180.283 91.6533 180.283 91.6533C180.39 91.7603 179.641 92.0813 179.641 93.0442C179.641 93.5791 179.962 93.9001 180.497 94.435C180.711 94.649 181.032 94.97 181.246 95.3979C181.46 95.8259 181.353 96.4678 181.032 96.7888C180.711 97.2168 180.497 97.4308 180.283 97.6447C180.176 97.8587 180.176 98.1797 180.283 98.3937C180.497 98.9286 181.032 99.4635 181.139 99.9985C181.353 100.64 181.139 101.175 180.818 101.389C180.818 101.71 180.497 101.603 180.604 101.603Z" fill="#EB996E"/>
<path d="M184.135 101.069C184.135 101.069 184.028 100.855 184.028 100.641C183.921 100.427 183.707 100.106 183.386 99.6779C183.279 99.4639 183.065 99.2499 182.851 98.9289C182.744 98.608 182.637 98.18 182.744 97.859C182.958 97.0031 183.6 96.5752 183.921 95.9332C184.242 95.3983 183.921 94.8633 183.493 94.3284C183.279 94.1144 183.065 93.7934 182.851 93.4725C182.744 93.1515 182.637 92.8305 182.637 92.5096C182.744 91.3327 183.6 91.0117 183.6 91.0117C183.707 91.1187 183.065 91.5467 183.172 92.5096C183.172 92.9375 183.386 93.3655 183.921 93.9004C184.135 94.1144 184.456 94.4354 184.67 94.8633C184.884 95.2913 184.777 95.8262 184.563 96.2542C184.135 97.0031 183.493 97.4311 183.386 97.966C183.279 98.501 183.6 99.0359 183.814 99.4639C184.135 99.8918 184.242 100.32 184.349 100.641C184.242 100.962 184.135 101.069 184.135 101.069Z" fill="#EB996E"/>
<path d="M62.7023 151.781C62.7023 151.781 65.2701 162.159 66.9819 164.941C68.6937 167.723 68.9077 170.183 68.9077 170.183L69.9776 186.767L56.39 200.033L30.1776 180.454C30.1776 180.454 20.7625 171.253 23.3303 167.723C23.3303 167.723 24.6141 166.011 26.7539 167.723C26.7539 167.723 16.9109 160.126 19.1577 157.131C21.4044 154.135 24.8281 158.522 28.3587 161.517C31.8894 164.513 33.0663 165.369 33.0663 165.369L22.9023 155.526C22.9023 155.526 20.0136 152.958 22.5813 150.925C25.1491 148.893 28.8937 154.028 30.7125 155.098C32.5313 156.168 42.5883 165.797 42.5883 165.797C42.5883 165.797 35.634 156.917 35.0991 156.489C34.5641 155.954 28.2518 151.246 30.6055 148.572C32.9593 145.897 38.9507 152.423 40.9835 154.028C43.0163 155.526 50.3986 164.513 52.1104 165.369C53.8222 166.225 56.8179 168.9 58.6367 168.044C60.4556 167.188 56.7109 160.233 57.2459 157.773C57.8878 155.205 58.9577 150.497 62.7023 151.781Z" fill="#FFBE9D"/>
<path d="M56.2827 183.771C56.3897 183.664 55.6407 182.915 55.3198 181.31C54.8918 179.705 55.1058 177.459 56.0687 175.212C56.9246 172.858 58.2085 170.932 58.8504 169.434C59.1714 168.686 59.2784 167.937 59.2784 167.509C59.2784 166.974 59.1714 166.76 59.1714 166.76C59.0644 166.76 59.1714 167.83 58.4225 169.221C57.6735 170.611 56.2827 172.537 55.4268 174.998C54.4639 177.352 54.3569 179.919 54.8918 181.524C55.3198 183.129 56.1757 183.771 56.2827 183.771Z" fill="#EB996E"/>
<path d="M37.9881 178.315C38.0951 178.315 37.6671 177.352 36.3832 176.496C35.2063 175.64 33.0666 174.998 31.6757 173.393C30.9268 172.644 30.4988 171.681 29.9639 170.825C29.5359 169.969 29.001 169.221 28.359 168.686C27.2891 167.616 26.2192 167.509 26.2192 167.616C26.2192 167.723 27.0752 167.937 28.0381 169.114C28.466 169.648 28.894 170.397 29.4289 171.253C29.8569 172.109 30.3918 173.072 31.1407 174.035C31.8897 174.891 32.9596 175.533 33.8155 175.961C34.6714 176.389 35.5273 176.71 36.1692 177.138C37.3461 177.673 37.8811 178.422 37.9881 178.315Z" fill="#EB996E"/>
<path d="M149.364 111.446L155.355 115.298L190.341 100.319L191.946 108.023L160.277 173.607L158.458 298.571L124.221 295.789L145.405 126.96L149.364 111.446Z" fill="#E30613"/>
<path d="M181.996 114.763C181.996 114.763 181.568 115.084 180.819 115.512C179.963 116.047 178.786 116.689 177.395 117.437C174.506 119.042 170.548 121.289 166.161 123.75C164.235 124.927 162.417 125.997 160.705 126.959L160.491 127.066L160.384 126.852C158.672 123.75 157.709 120.968 156.853 119.042C156.425 118.079 156.104 117.33 155.783 116.795C155.569 116.261 155.355 116.047 155.462 115.94C155.462 115.94 155.676 116.154 155.997 116.688C156.318 117.223 156.746 117.865 157.174 118.828C158.137 120.647 159.207 123.536 160.919 126.425L160.598 126.318C162.31 125.355 164.128 124.178 166.054 123.108C170.441 120.54 174.399 118.4 177.395 116.902C178.893 116.154 180.07 115.512 180.926 115.191C181.568 114.977 181.996 114.763 181.996 114.763Z" fill="#263238"/>
<path d="M142.195 120.968C136.418 123.215 128.608 126.211 124.328 127.816C122.081 128.671 120.048 130.062 118.444 131.988C114.592 136.482 107.638 146.111 103.465 161.945C97.9017 183.45 91.9103 199.498 91.9103 199.498L72.0103 184.734L44.3 212.123C44.3 212.123 90.9474 252.672 105.712 252.565L95.6549 332.058H124.328L147.973 121.075L149.364 111.66C148.829 111.66 143.479 119.149 142.195 120.968Z" fill="#EBEBEB"/>
<path d="M115.769 147.502C115.769 147.502 115.769 147.609 115.769 147.823C115.769 148.037 115.769 148.358 115.662 148.679C115.555 149.428 115.448 150.605 115.341 151.996C115.02 154.884 114.592 158.95 113.95 163.978C112.773 174.142 111.276 188.158 109.885 203.671C108.387 219.185 107.21 233.307 106.354 243.471C105.926 248.5 105.498 252.672 105.284 255.561C105.177 256.952 105.07 258.022 104.963 258.878C104.963 259.199 104.856 259.52 104.856 259.734C104.856 259.948 104.856 260.055 104.856 260.055C104.856 260.055 104.856 259.948 104.856 259.734C104.856 259.52 104.856 259.199 104.856 258.878C104.856 258.129 104.963 256.952 105.07 255.561C105.284 252.672 105.605 248.607 105.926 243.471C106.675 233.307 107.852 219.185 109.35 203.671C110.848 188.158 112.345 174.142 113.629 163.978C114.271 158.95 114.806 154.777 115.127 151.996C115.341 150.605 115.448 149.535 115.555 148.786C115.662 148.465 115.662 148.144 115.662 147.93C115.769 147.609 115.769 147.502 115.769 147.502Z" fill="#263238"/>
<path d="M201.253 227.209C201.146 227.316 198.899 224.962 195.369 223.251C191.838 221.539 188.629 221.218 188.736 221.004C188.736 220.897 189.591 220.897 190.875 221.111C192.159 221.325 193.871 221.86 195.69 222.716C197.509 223.572 198.899 224.641 199.862 225.604C200.825 226.567 201.36 227.209 201.253 227.209Z" fill="#263238"/>
<path d="M226.61 134.449C226.61 134.449 219.549 128.886 212.38 123.108C205.212 117.331 193.336 108.772 193.336 108.772L191.197 101.604C191.197 101.604 184.884 108.237 179.321 120.22C171.404 137.445 162.202 162.587 160.384 173.5L149.364 331.738H231.211L212.167 219.292L226.61 134.449Z" fill="#EBEBEB"/>
<path d="M159.849 183.664C159.849 183.664 159.956 183.343 160.277 182.915C160.598 182.38 160.919 181.631 161.453 180.775C162.523 178.85 164.021 176.175 165.84 172.858C169.585 166.118 174.827 156.917 180.498 146.753C180.712 146.325 181.033 145.79 181.247 145.362V145.576C180.605 143.436 180.07 141.403 179.428 139.477L179.321 139.263L179.428 139.156C180.926 138.087 182.423 137.017 183.814 136.054L183.707 136.161C186.382 128.244 188.736 121.396 190.448 116.475C191.303 114.121 191.945 112.195 192.48 110.804C192.694 110.162 192.908 109.734 193.015 109.306C193.122 108.985 193.229 108.771 193.229 108.771C193.229 108.771 193.229 108.985 193.122 109.306C193.015 109.734 192.801 110.162 192.694 110.804C192.266 112.195 191.624 114.121 190.876 116.475C189.271 121.396 187.024 128.244 184.349 136.268V136.375H184.242C182.851 137.338 181.353 138.408 179.856 139.477L179.963 139.156C180.498 141.189 181.14 143.222 181.781 145.255V145.362L181.674 145.469C181.46 145.897 181.14 146.432 180.926 146.86C175.148 157.024 169.906 166.118 166.054 172.858C164.128 176.175 162.63 178.849 161.453 180.668C160.919 181.524 160.491 182.273 160.17 182.808C159.956 183.45 159.849 183.664 159.849 183.664Z" fill="#263238"/>
<path d="M140.484 187.516C140.484 187.516 140.377 187.302 140.27 186.767C140.163 186.232 140.056 185.59 139.949 184.734C139.628 182.915 139.2 180.24 138.772 177.138C137.809 170.611 136.418 161.731 134.92 151.995C134.813 150.925 134.599 149.962 134.492 148.999V148.892V148.785C135.776 146.432 137.06 144.185 138.237 142.045L138.344 142.473C137.06 142.045 135.883 141.617 134.599 141.296L134.385 141.189L134.492 140.975C136.739 135.091 138.558 130.169 139.949 126.532C140.591 124.82 141.126 123.429 141.554 122.466C141.768 122.038 141.875 121.717 141.981 121.396C142.088 121.182 142.195 121.075 142.195 121.075C142.195 121.075 142.195 121.182 142.088 121.503C141.981 121.824 141.875 122.145 141.768 122.573C141.447 123.643 140.912 125.034 140.27 126.746C138.986 130.383 137.167 135.305 135.027 141.189L134.92 140.868C136.097 141.296 137.381 141.617 138.665 142.045L138.986 142.152L138.665 142.259C137.488 144.399 136.204 146.646 134.92 148.999V148.785C135.027 149.748 135.241 150.818 135.348 151.781C136.739 161.624 138.023 170.504 138.986 176.924C139.414 180.133 139.735 182.701 140.056 184.52C140.163 185.376 140.27 186.018 140.27 186.553C140.484 187.302 140.591 187.516 140.484 187.516Z" fill="#263238"/>
<path d="M147.865 121.61C147.972 121.61 148.721 123.108 149.791 125.354H149.363C149.791 124.498 150.433 123.429 151.075 122.466C152.252 120.754 153.322 119.149 154.071 117.972C154.82 116.795 155.248 116.153 155.355 116.153C155.462 116.153 155.141 117.009 154.392 118.186C153.75 119.363 152.68 120.968 151.503 122.787C150.861 123.857 150.219 124.819 149.684 125.675L149.47 126.103L149.256 125.675C148.4 123.215 147.865 121.61 147.865 121.61Z" fill="#263238"/>
<path d="M138.451 296.965C138.451 296.965 138.451 296.859 138.451 296.538C138.451 296.217 138.558 295.789 138.558 295.147C138.665 293.97 138.772 292.151 138.986 289.904C139.414 285.304 139.949 278.67 140.697 270.539C142.195 254.17 144.335 231.702 146.582 206.773C148.936 181.845 151.075 159.377 152.68 143.008C153.429 134.877 154.178 128.243 154.606 123.75C154.82 121.503 155.034 119.684 155.141 118.507C155.248 117.972 155.248 117.437 155.248 117.116C155.248 116.795 155.355 116.688 155.355 116.688C155.355 116.688 155.355 116.795 155.355 117.116C155.355 117.437 155.248 117.865 155.248 118.507C155.141 119.684 155.034 121.503 154.82 123.75C154.392 128.35 153.857 134.984 153.108 143.115C151.61 159.484 149.471 181.952 147.224 206.88C144.87 231.702 142.73 254.277 141.125 270.646C140.376 278.777 139.628 285.411 139.2 289.904C138.986 292.151 138.772 293.97 138.665 295.147C138.558 295.682 138.558 296.217 138.558 296.538C138.558 296.752 138.451 296.965 138.451 296.965Z" fill="#263238"/>
<g opacity="0.2">
<path opacity="0.2" d="M192.48 111.126L184.67 139.157L181.46 140.441L183.707 147.395L161.346 180.883L181.46 145.577L179.641 139.478L184.028 136.268L192.48 111.126Z" fill="black"/>
</g>
<g opacity="0.2">
<path opacity="0.2" d="M156.318 117.759L158.351 132.416L178.251 117.01L160.597 126.746L156.318 117.759Z" fill="black"/>
</g>
<path d="M159.528 232.344L122.403 183.343C121.654 182.273 120.263 181.845 118.979 182.273L62.2746 201.638C60.2418 202.28 59.5999 204.848 60.8837 206.453L107.103 262.087C107.959 263.05 109.243 263.478 110.527 263.05L163.593 243.685C165.519 242.936 166.268 240.476 164.877 238.871L159.528 232.344Z" fill="#455A64"/>
<path d="M84.2073 200.035C84.2073 200.89 84.9562 201.532 85.8121 201.532C86.668 201.532 87.31 200.783 87.31 199.928C87.31 199.072 86.561 198.43 85.7051 198.43C84.8492 198.43 84.2073 199.179 84.2073 200.035Z" fill="#263238"/>
<path d="M95.7624 196.182C95.7624 197.038 96.5113 197.68 97.3673 197.68C98.2232 197.68 98.8651 196.931 98.8651 196.075C98.8651 195.219 98.1162 194.577 97.2603 194.577C96.4044 194.577 95.6554 195.326 95.7624 196.182Z" fill="#263238"/>
<path d="M128.608 241.01L125.612 240.368C125.612 240.368 124.435 235.446 123.045 234.484C121.654 233.521 108.387 227.957 105.498 226.566C102.61 225.069 91.1617 220.361 89.8779 223.143C88.38 226.245 93.0875 228.599 95.5483 229.776C98.116 230.846 105.284 233.414 103.893 235.125C102.503 236.837 86.0263 236.73 86.0263 236.73L84.1004 234.484C84.1004 234.484 81.2117 237.372 81.6397 240.261C82.1746 243.15 83.3515 244.862 83.3515 244.862H84.5284C84.5284 244.862 83.4585 246.573 84.5284 248.285C85.5983 249.997 87.8451 252.137 87.8451 252.137C87.8451 252.137 89.8779 255.988 95.4413 257.272C96.0832 257.379 122.296 258.77 122.296 258.77L131.818 260.91L128.608 241.01Z" fill="#FFBE9D"/>
<path d="M197.509 147.716C197.188 148.358 189.378 220.682 189.378 220.682L128.287 239.192L134.065 275.033C134.065 275.033 216.553 260.269 225.112 244.755C232.388 231.595 234.1 175.64 234.421 159.164C234.528 155.098 234.1 151.139 233.03 147.288C231.853 142.687 229.713 137.017 226.396 134.449C220.405 129.635 197.509 147.716 197.509 147.716Z" fill="#EBEBEB"/>
<path d="M195.797 162.802C195.797 162.802 195.797 163.123 195.69 163.872C195.583 164.621 195.476 165.583 195.369 166.974C195.048 169.756 194.62 173.715 194.193 178.743C193.123 188.907 191.518 203.351 189.699 220.79V220.897H189.592C171.939 226.246 150.969 232.666 128.501 239.406L128.715 239.085C128.715 239.299 128.822 239.62 128.822 239.834C130.855 252.138 132.781 264.014 134.492 274.927L134.172 274.713C158.993 270.005 180.177 264.87 194.941 260.269C196.76 259.734 198.472 259.092 200.184 258.557C201.04 258.236 201.789 258.022 202.538 257.808C203.287 257.487 204.036 257.273 204.784 256.952C206.175 256.417 207.566 255.989 208.743 255.455C209.92 254.92 210.99 254.492 211.953 254.064C212.916 253.636 213.772 253.315 214.521 252.887C215.269 252.459 215.804 252.245 216.339 251.924C216.767 251.71 217.195 251.496 217.409 251.389C217.623 251.282 217.837 251.175 217.837 251.175C217.837 251.175 217.73 251.282 217.516 251.389C217.302 251.496 216.874 251.71 216.446 252.031C215.911 252.352 215.376 252.673 214.628 252.994C213.879 253.422 213.13 253.85 212.06 254.278C211.097 254.706 210.027 255.241 208.85 255.775C207.673 256.31 206.282 256.738 204.891 257.273C204.143 257.594 203.501 257.808 202.645 258.129C201.896 258.343 201.04 258.664 200.291 258.985C198.686 259.52 196.974 260.162 195.048 260.697C180.284 265.405 159.1 270.647 134.279 275.355H134.065V275.034C132.246 264.121 130.32 252.245 128.394 239.941C128.394 239.727 128.287 239.406 128.287 239.192V238.978L128.501 238.871C150.969 232.024 171.939 225.711 189.592 220.362L189.378 220.576C191.304 203.137 193.016 188.693 194.086 178.529C194.62 173.501 195.155 169.542 195.476 166.76C195.69 165.476 195.797 164.407 195.904 163.658C195.69 163.123 195.797 162.802 195.797 162.802Z" fill="#263238"/>
<path d="M222.652 132.951C222.652 133.058 220.94 132.951 218.158 133.272C216.767 133.486 215.163 133.807 213.451 134.342C211.739 134.877 209.92 135.733 208.101 136.696C206.283 137.766 204.678 138.943 203.394 140.227C202.11 141.51 200.933 142.687 200.184 143.757C198.472 145.897 197.83 147.502 197.723 147.502C197.723 147.502 197.83 147.074 198.151 146.432C198.365 146.111 198.579 145.683 198.793 145.148C199.114 144.72 199.435 144.078 199.863 143.543C200.612 142.366 201.789 141.082 203.073 139.799C204.464 138.515 206.069 137.338 207.887 136.161C209.706 135.091 211.632 134.342 213.344 133.807C215.163 133.272 216.767 132.951 218.158 132.844C218.8 132.737 219.442 132.737 220.084 132.737C220.619 132.737 221.154 132.737 221.475 132.737C222.224 132.844 222.652 132.844 222.652 132.951Z" fill="#263238"/>
</g>
</svg>
