<svg width="31" height="30" viewBox="0 0 31 30" fill="none" xmlns="http://www.w3.org/2000/svg">
<path d="M21.8983 27.7258C20.8424 28.7801 19.4109 29.3717 17.9189 29.3705C16.4268 29.3693 14.9963 28.7755 13.942 27.7196C12.8878 26.6637 12.2962 25.2322 12.2974 23.7401C12.2985 22.2481 12.8924 20.8176 13.9483 19.7633L20.1358 13.5133C20.6586 12.9913 21.2791 12.5774 21.9619 12.2952C22.6447 12.013 23.3764 11.8681 24.1152 11.8687C24.854 11.8692 25.5854 12.0153 26.2678 12.2986C26.9501 12.5818 27.57 12.9968 28.092 13.5196C28.614 14.0424 29.028 14.6629 29.3102 15.3457C29.5923 16.0285 29.7373 16.7602 29.7367 17.499C29.7361 18.2378 29.5901 18.9693 29.3068 19.6516C29.0235 20.334 28.6086 20.9538 28.0858 21.4758L21.8983 27.7258Z" stroke="#E30612" stroke-linecap="round" stroke-linejoin="round"/>
<path d="M17.0481 16.6758L24.9982 24.6258" stroke="#E30612" stroke-linecap="round" stroke-linejoin="round"/>
<path d="M13.4856 8.82568V13.1257L7.8606 15.0007" stroke="#E30612" stroke-linecap="round" stroke-linejoin="round"/>
<path d="M8.14812 24.4258C6.35185 23.5747 4.78443 22.3077 3.5759 20.7296C2.36737 19.1516 1.55263 17.308 1.19919 15.352C0.845765 13.3961 0.963879 11.384 1.54374 9.48282C2.1236 7.58162 3.14845 5.84608 4.53332 4.42026C5.91818 2.99445 7.62311 1.91943 9.50661 1.28443C11.3901 0.649434 13.3979 0.472765 15.3633 0.769065C17.3288 1.06537 19.1953 1.8261 20.8079 2.98815C22.4205 4.1502 23.7326 5.6801 24.6356 7.45081" stroke="#E30612" stroke-linecap="round" stroke-linejoin="round"/>
<path d="M20.5608 6.05078L19.6733 6.93823" stroke="#E30612" stroke-linecap="round" stroke-linejoin="round"/>
<path d="M6.4231 20.1882L7.29811 19.3132" stroke="#E30612" stroke-linecap="round" stroke-linejoin="round"/>
<path d="M3.4856 13.1257H4.7356" stroke="#E30612" stroke-linecap="round" stroke-linejoin="round"/>
<path d="M6.4231 6.05078L7.29811 6.93823" stroke="#E30612" stroke-linecap="round" stroke-linejoin="round"/>
<path d="M13.4856 2.96338V3.90088" stroke="#E30612" stroke-linecap="round" stroke-linejoin="round"/>
</svg>
