<svg width="44" height="44" viewBox="0 0 44 44" fill="none" xmlns="http://www.w3.org/2000/svg">
<path d="M33 9.16675C33 8.92363 32.9034 8.69043 32.7315 8.51853C32.5596 8.34662 32.3264 8.25008 32.0833 8.25008H25.6667V1.83341C25.6667 1.5903 25.5701 1.35716 25.3982 1.18525C25.2263 1.01334 24.9931 0.916748 24.75 0.916748H19.25C19.0069 0.916748 18.7737 1.01334 18.6018 1.18525C18.4299 1.35716 18.3333 1.5903 18.3333 1.83341V8.25008H11.9167C11.6736 8.25008 11.4404 8.34662 11.2685 8.51853C11.0966 8.69043 11 8.92363 11 9.16675V14.6668C11.0047 14.9084 11.1027 15.1388 11.2736 15.3097C11.4445 15.4806 11.675 15.5787 11.9167 15.5834H18.3333V22.0001C18.338 22.2417 18.4361 22.4721 18.607 22.643C18.7779 22.814 19.0084 22.9121 19.25 22.9168H24.75C24.9931 22.9168 25.2263 22.8202 25.3982 22.6483C25.5701 22.4764 25.6667 22.2432 25.6667 22.0001V15.5834H32.0833C32.3264 15.5834 32.5596 15.4869 32.7315 15.315C32.9034 15.1431 33 14.9099 33 14.6668V9.16675Z" stroke="#E30612" stroke-linecap="round" stroke-linejoin="round"/>
<path d="M6.41675 43.0835L2.75008 38.4635C1.5711 37.0046 0.924449 35.1875 0.916748 33.3118V23.8335C0.916748 23.1042 1.20646 22.4047 1.72219 21.8889C2.23791 21.3732 2.9374 21.0835 3.66675 21.0835V21.0835C4.39609 21.0835 5.09553 21.3732 5.61125 21.8889C6.12698 22.4047 6.41675 23.1042 6.41675 23.8335V30.7085" stroke="#E30612" stroke-linecap="round" stroke-linejoin="round"/>
<path d="M14.6669 42.8268V37.3268C14.6681 35.6972 14.19 34.1032 13.2919 32.7434L11.1836 29.6085C11.0055 29.3105 10.7693 29.0513 10.489 28.8466C10.2086 28.6418 9.88993 28.4957 9.55187 28.4168C9.21308 28.3417 8.86248 28.3372 8.52185 28.4035C8.18123 28.4697 7.85789 28.6053 7.5719 28.8018V28.8018C7.04731 29.1449 6.66752 29.6691 6.50518 30.2745C6.34283 30.8799 6.4093 31.524 6.69188 32.0834L9.16689 36.2084" stroke="#E30612" stroke-linecap="round" stroke-linejoin="round"/>
<path d="M37.5835 43.0835L41.2502 38.4635C42.4227 37.001 43.0686 35.1862 43.0835 33.3118V23.8335C43.0835 23.1042 42.7937 22.4047 42.278 21.8889C41.7623 21.3732 41.0628 21.0835 40.3335 21.0835C39.6041 21.0835 38.9047 21.3732 38.3889 21.8889C37.8732 22.4047 37.5835 23.1042 37.5835 23.8335V30.7085" stroke="#E30612" stroke-linecap="round" stroke-linejoin="round"/>
<path d="M29.3335 42.8268V37.3268C29.3388 35.6954 29.8232 34.1016 30.7268 32.7434L32.8168 29.6085C32.9985 29.3099 33.2381 29.0506 33.5214 28.8459C33.8048 28.6413 34.1262 28.4954 34.4668 28.4168C34.8056 28.3417 35.1562 28.3372 35.4968 28.4035C35.8374 28.4697 36.1608 28.6053 36.4468 28.8018V28.8018C36.9683 29.1476 37.3455 29.6719 37.5075 30.2762C37.6696 30.8805 37.6053 31.5232 37.3268 32.0834L34.8335 36.2084" stroke="#E30612" stroke-linecap="round" stroke-linejoin="round"/>
</svg>
