<svg width="173" height="36" viewBox="0 0 173 36" fill="none" xmlns="http://www.w3.org/2000/svg">
<path d="M66.8537 25.743C65.9397 26.333 64.4293 27.1192 62.5215 27.1192C58.9049 27.1192 57.9903 24.7216 57.9903 22.9129C57.9903 22.3635 58.07 21.9304 58.1894 21.5778C53.6182 24.9572 50.1208 30.1055 48.9281 31.9526C48.2127 33.0533 47.6563 34.0358 47.3783 34.5071C47.1001 35.0577 46.901 35.2152 46.4642 35.2152H42.8867C42.4493 35.2152 42.3304 35.0183 42.3304 34.7832C42.3304 34.4683 43.4828 32.582 43.8405 32.0319C41.9328 33.8783 39.9058 35.8439 37.0437 35.8439C34.5798 35.8439 33.5862 34.1145 33.5862 32.6607C33.5862 32.1894 33.6652 31.442 33.7448 31.2068C32.4333 32.6607 29.2539 35.8438 25.4779 35.8438C22.6557 35.8438 22.0596 33.6431 22.0596 32.3855C22.0596 32.0706 22.1392 31.5206 22.179 31.3631C21.1854 32.6606 17.1312 36.0006 13.2358 36.0006C10.0955 36.0006 7.31387 33.368 5.24694 33.368C3.69641 33.368 1.94811 35.6862 1.03347 35.6862C0.437386 35.6862 0 35.215 0 34.7037C0 34.0749 0.556822 33.6818 1.47081 33.2105C2.34498 32.7786 3.69641 32.0317 5.08817 31.1667C6.59825 30.2241 16.5341 23.424 17.8069 22.8347C15.223 23.2279 11.646 21.5778 10.0165 21.5778C8.38691 21.5778 7.59185 22.9528 7.35354 23.2666C7.15444 23.5428 6.95599 23.621 6.79666 23.621C6.43897 23.621 5.96232 23.2666 5.96232 23.0316C5.96232 22.8741 5.96232 22.7167 6.24046 22.3635C7.6714 20.5159 10.1354 17.6868 13.3153 17.6868C16.4548 17.6868 19.317 19.4546 21.8212 19.4546C22.6556 19.4546 23.0532 19.0615 23.3312 18.669C23.7289 18.0789 23.9671 17.4111 24.9209 17.4111C25.6763 17.4111 26.034 17.8043 26.034 18.354C26.034 19.4153 24.524 20.0046 21.7416 21.8916C19.3966 23.4636 11.0502 29.1229 8.78371 30.4986C11.805 30.0667 14.3485 32.5031 16.9318 32.5031C18.1643 32.5031 20.1915 31.9131 23.2912 28.4155C24.166 26.7255 28.2594 20.4766 28.7764 19.6903C29.2537 18.9828 29.6114 18.5115 30.3661 18.4721L33.069 18.3152C33.5462 18.2753 33.9039 18.2359 34.3413 18.2359C34.8179 18.2359 34.9374 18.4722 34.9374 18.669C34.9374 18.944 34.8577 19.2578 33.7845 20.7516C31.5589 23.8955 26.5907 31.0879 26.5907 32.8954C26.5907 33.5242 26.8688 33.761 27.4251 33.761C29.2537 33.761 32.6315 30.4985 34.3014 28.6115C35.9708 26.7253 39.9453 20.28 40.3827 19.5332C40.7404 18.9438 41.1374 18.5113 41.8927 18.4719L44.476 18.315C44.9532 18.2751 45.311 18.2357 45.7484 18.2357C46.225 18.2357 46.3444 18.4719 46.3444 18.6687C46.3444 18.9437 46.1858 19.1788 45.1916 20.7513C44.397 21.97 41.8529 25.7039 39.9851 28.7691C38.8322 30.656 37.958 32.3067 37.958 32.9354C37.958 33.5641 38.2361 33.761 38.872 33.761C40.5016 33.761 45.2313 29.6341 49.3252 23.1497C49.9611 22.1272 50.796 20.5952 51.4319 19.5333C51.7897 18.944 52.1866 18.5116 52.942 18.4721L55.2472 18.3152C55.7245 18.2753 56.0424 18.2359 56.5196 18.2359C56.9564 18.2359 57.1157 18.4327 57.1157 18.7078C57.1157 18.9046 56.7579 19.4546 56.3603 20.0839C55.7643 21.027 54.7706 22.5991 54.5716 22.9128C55.3269 22.2065 57.4734 20.3191 58.7452 19.3759C59.8184 18.5509 60.7325 17.7255 62.9976 17.7255H64.3893C65.0247 17.7255 65.2638 17.843 65.2638 18.1965C65.2638 18.4327 65.0648 18.6689 64.7466 19.1402C64.0315 20.2015 62.9191 21.8128 62.9191 23.5028C62.9191 24.3678 63.2763 25.0747 64.4289 25.0747C64.906 25.0747 65.4622 24.8779 65.8201 24.6816C66.1779 24.4853 66.5753 24.1322 66.9732 24.1322C67.37 24.1322 67.6883 24.4854 67.6883 24.8004C67.6883 25.1929 67.37 25.3892 66.8534 25.7429" fill="#E60000"/>
<path d="M168.168 19.9257C168.168 23.0696 163.238 26.1746 159.224 26.5678C160.895 22.3627 165.186 18.8246 166.935 18.8246C167.889 18.8246 168.168 19.297 168.168 19.9258V19.9257ZM172.5 20.947C172.5 18.157 169.598 17.4891 167.333 17.4891C162.324 17.4891 153.5 22.7558 153.5 29.6339C153.5 33.4465 155.528 35.8434 160.337 35.8434C165.585 35.8434 169.796 32.6208 170.353 32.1889C171.227 31.4808 171.625 31.0095 171.625 30.6951C171.625 30.3014 171.307 29.9477 170.831 29.9477C170.432 29.9477 169.915 30.459 169.161 31.0096C168.048 31.7958 165.425 33.4465 162.643 33.4465C159.026 33.4465 158.548 31.2452 158.548 29.7515C158.548 29.2015 158.628 28.6515 158.747 28.1402C162.365 27.6289 172.5 25.9395 172.5 20.9475L172.5 20.947ZM154.774 21.0264C154.774 18.5894 152.309 17.4892 149.804 17.4892C144.996 17.4892 142.372 20.3184 142.372 23.109C142.372 26.2934 147.181 27.9822 147.181 31.0874C147.181 33.5237 145.392 34.3887 143.763 34.3887C142.293 34.3887 140.862 33.7205 140.862 31.6773C140.862 29.8697 141.776 29.9085 141.776 29.0835C141.776 28.651 141.26 28.3361 140.186 28.3361C138.596 28.3361 137.006 29.5937 137.006 31.6774C137.006 34.1137 139.312 35.843 143.446 35.843C148.93 35.843 151.593 32.5411 151.593 29.5155C151.593 25.5853 146.625 24.0916 146.625 21.0265C146.625 19.3359 147.976 18.8247 148.851 18.8247C149.526 18.8247 151.037 19.1009 151.037 21.0265C151.037 22.8735 150.282 22.756 150.282 23.5811C150.282 24.171 151.116 24.3279 151.793 24.3279C153.342 24.3279 154.774 23.1092 154.774 21.0265L154.774 21.0264ZM138.756 22.8734C138.756 19.7683 136.529 17.4892 132.714 17.4892C125.639 17.4892 118.842 24.6028 118.644 30.2627C117.928 31.1665 115.226 33.761 113.079 33.761C112.443 33.761 111.967 33.4465 111.967 32.8565C111.967 30.5766 115.026 26.4108 115.026 22.7951C115.026 20.9476 113.834 18.9826 111.529 18.7863C117.61 17.7254 122.778 13.9528 122.778 8.29324C122.778 2.20122 116.299 0 107.952 0C96.7443 0 89.9469 4.75629 85.2963 8.45022C79.7318 12.8521 75.6376 20.1615 75.6376 26.5685C75.6376 32.0706 78.261 35.8437 84.8594 35.8437C90.901 35.8437 94.915 33.7611 99.1289 28.8079C100.48 27.2366 103.302 23.3852 105.489 19.2577C106.403 19.219 107.237 19.179 108.112 19.179C109.662 19.179 110.218 19.6902 110.218 20.6728C110.218 21.184 110.019 21.9702 109.662 22.8741C108.629 25.3503 106.64 28.9267 106.64 31.7961C106.64 33.9181 108.032 35.8437 111.371 35.8437C115.266 35.8437 118.247 33.053 118.923 32.2673C119.598 34.4292 121.625 35.8831 124.725 35.8831C131.84 35.8831 138.757 28.5729 138.757 22.8739L138.756 22.8734ZM134.066 20.9471C134.066 25.311 128.859 34.5063 124.844 34.5063C124.089 34.5063 123.334 33.9962 123.334 32.463C123.334 28.101 128.542 18.8645 132.555 18.8645C133.311 18.8645 134.066 19.4145 134.066 20.947V20.9471ZM104.018 8.8033C104.018 10.022 102.944 13.1659 100.798 17.2529C98.3329 16.6247 97.7767 15.2484 97.7767 13.5197C97.7767 10.9647 99.6844 7.23076 102.387 7.23076C103.699 7.23076 104.018 7.93831 104.018 8.8033ZM117.133 8.05693C117.133 13.2052 111.45 17.2923 106.281 17.646C107.594 14.8165 108.548 11.9871 108.548 9.70705C108.548 7.82072 107.792 5.30572 103.858 5.30572C98.5311 5.30572 95.9873 10.2184 95.9873 13.4803C95.9873 15.8385 96.981 17.7642 100.082 18.7071C99.5248 19.7683 98.8499 20.9083 98.1343 22.0483C93.3645 29.7898 88.834 33.8778 84.4219 33.8778C80.6854 33.8778 78.8969 31.7958 78.8969 27.9045C78.8969 16.625 91.0993 2.04387 107.117 2.04387C111.409 2.04387 117.133 2.67266 117.133 8.05776" fill="#E60000"/>
</svg>
