<svg width="25" height="26" viewBox="0 0 25 26" fill="none" xmlns="http://www.w3.org/2000/svg">
<path d="M12.5 24.0001C14.7745 24.0001 16.9979 23.3255 18.8891 22.0618C20.7802 20.7982 22.2542 19.0023 23.1246 16.9009C23.995 14.7996 24.2228 12.4872 23.779 10.2564C23.3353 8.02562 22.24 5.97653 20.6317 4.36822C19.0234 2.75992 16.9743 1.66474 14.7435 1.22101C12.5127 0.777275 10.2005 1.00489 8.09915 1.8753C5.9978 2.74571 4.20175 4.21973 2.93811 6.1109C1.67447 8.00206 1 10.2256 1 12.5001C1 15.55 2.21162 18.475 4.36829 20.6316C6.52495 22.7883 9.45001 24.0001 12.5 24.0001V24.0001Z" stroke="black" stroke-linecap="round" stroke-linejoin="round"/>
<path d="M12.5 13.5001C13.3406 13.5001 14.1623 13.2508 14.8612 12.7838C15.5601 12.3168 16.1048 11.6531 16.4265 10.8766C16.7482 10.1 16.8323 9.24541 16.6683 8.421C16.5043 7.59658 16.0996 6.8391 15.5052 6.24473C14.9108 5.65035 14.1536 5.24563 13.3291 5.08164C12.5047 4.91765 11.6502 5.00191 10.8736 5.32358C10.097 5.64526 9.43324 6.18986 8.96625 6.88877C8.49925 7.58768 8.25 8.40953 8.25 9.2501C8.25 10.3773 8.69775 11.4582 9.49478 12.2552C10.2918 13.0523 11.3728 13.5001 12.5 13.5001Z" stroke="black" stroke-linecap="round" stroke-linejoin="round"/>
<path d="M18.8199 19C18.2512 17.8057 17.3557 16.7968 16.2371 16.0906C15.1186 15.3843 13.8228 15.0095 12.4999 15.0095C11.1771 15.0095 9.8813 15.3843 8.76276 16.0906C7.64421 16.7968 6.74868 17.8057 6.17993 19" stroke="black" stroke-linecap="round" stroke-linejoin="round"/>
</svg>
