<svg width="25" height="26" viewBox="0 0 25 26" fill="none" xmlns="http://www.w3.org/2000/svg">
<path d="M13 25.0001C15.2745 25.0001 17.4979 24.3255 19.3891 23.0618C21.2802 21.7982 22.7542 20.0023 23.6246 17.9009C24.495 15.7996 24.7228 13.4872 24.279 11.2564C23.8353 9.02562 22.74 6.97653 21.1317 5.36822C19.5234 3.75992 17.4743 2.66474 15.2435 2.22101C13.0127 1.77728 10.7005 2.00489 8.59915 2.8753C6.4978 3.74571 4.70175 5.21973 3.43811 7.1109C2.17447 9.00206 1.5 11.2256 1.5 13.5001C1.5 16.55 2.71162 19.475 4.86829 21.6316C7.02495 23.7883 9.95001 25.0001 13 25.0001V25.0001Z" stroke="#E30612" stroke-linecap="round" stroke-linejoin="round"/>
<path d="M13 14.5001C13.8406 14.5001 14.6623 14.2508 15.3612 13.7838C16.0601 13.3168 16.6048 12.6531 16.9265 11.8766C17.2482 11.1 17.3323 10.2454 17.1683 9.421C17.0043 8.59658 16.5996 7.8391 16.0052 7.24473C15.4108 6.65035 14.6536 6.24563 13.8291 6.08164C13.0047 5.91765 12.1502 6.00191 11.3736 6.32358C10.597 6.64526 9.93324 7.18986 9.46625 7.88877C8.99925 8.58768 8.75 9.40953 8.75 10.2501C8.75 11.3773 9.19775 12.4582 9.99478 13.2552C10.7918 14.0523 11.8728 14.5001 13 14.5001Z" stroke="#E30612" stroke-linecap="round" stroke-linejoin="round"/>
<path d="M19.3199 20.0002C18.7512 18.8059 17.8557 17.7971 16.7371 17.0908C15.6186 16.3846 14.3228 16.0098 12.9999 16.0098C11.6771 16.0098 10.3813 16.3846 9.26276 17.0908C8.14421 17.7971 7.24868 18.8059 6.67993 20.0002" stroke="#E30612" stroke-linecap="round" stroke-linejoin="round"/>
</svg>
