<svg width="25" height="25" viewBox="0 0 25 25" fill="none" xmlns="http://www.w3.org/2000/svg">
<path d="M1.00024 24.5L10.3002 15.2C10.4876 15.0138 10.7411 14.9092 11.0052 14.9092C11.2694 14.9092 11.5229 15.0138 11.7103 15.2L14.8002 18.29C14.9876 18.4762 15.2411 18.5808 15.5052 18.5808C15.7694 18.5808 16.0229 18.4762 16.2103 18.29L24.0002 10.5" stroke="#E30612" stroke-linecap="round" stroke-linejoin="round"/>
<path d="M17.0002 10.5H24.0002V17.5" stroke="#E30612" stroke-linecap="round" stroke-linejoin="round"/>
<path d="M7.00017 12.0001L1.89019 6.66003C1.43775 6.21368 1.13875 5.63523 1.0363 5.00799C0.93386 4.38075 1.03326 3.73714 1.32018 3.17004V3.17004C1.53315 2.7408 1.84581 2.36885 2.23204 2.08526C2.61828 1.80167 3.06683 1.61469 3.54015 1.54003C4.01376 1.45922 4.49983 1.49334 4.95751 1.63952C5.41518 1.7857 5.83107 2.03968 6.17015 2.38006L7.00017 3.22003L7.84014 2.38006C8.17676 2.03692 8.59092 1.77971 9.04772 1.63006C9.50451 1.48041 9.99061 1.4427 10.465 1.52014C10.9394 1.59757 11.3882 1.78787 11.7737 2.07501C12.1592 2.36214 12.4701 2.73767 12.6802 3.17004V3.17004C12.9683 3.73613 13.0694 4.37909 12.9687 5.00628C12.8681 5.63347 12.571 6.21251 12.1202 6.66003L7.00017 12.0001Z" stroke="#E30612" stroke-linecap="round" stroke-linejoin="round"/>
</svg>
