<svg width="24" height="24" viewBox="0 0 24 24" fill="none" xmlns="http://www.w3.org/2000/svg">
<path d="M22.8936 23.0626H21.8655V8.13461C21.8655 7.43978 21.3002 6.87451 20.6054 6.87451H18.3074C17.6126 6.87451 17.0473 7.43982 17.0473 8.13461V23.0626H14.4367V14.8982C14.4367 14.2033 13.8715 13.6381 13.1767 13.6381H10.8787C10.1838 13.6381 9.61856 14.2034 9.61856 14.8982V23.0626H7.008V18.8343C7.008 18.1395 6.44269 17.5742 5.7479 17.5742H3.44986C2.75503 17.5742 2.18976 18.1395 2.18976 18.8343V23.0626H1.1062C0.847311 23.0626 0.637451 23.2725 0.637451 23.5314C0.637451 23.7902 0.847311 24.0001 1.1062 24.0001H22.8936C23.1525 24.0001 23.3624 23.7902 23.3624 23.5314C23.3624 23.2725 23.1525 23.0626 22.8936 23.0626ZM6.0704 23.0626H3.12722V18.8343C3.12722 18.6564 3.27192 18.5117 3.44981 18.5117H5.74781C5.9257 18.5117 6.0704 18.6564 6.0704 18.8343V23.0626ZM13.4992 23.0626H10.556V14.8982C10.556 14.7203 10.7007 14.5756 10.8786 14.5756H13.1766C13.3545 14.5756 13.4992 14.7203 13.4992 14.8982V23.0626ZM20.928 23.0626H17.9848V8.13461C17.9848 7.95671 18.1295 7.81201 18.3074 7.81201H20.6054C20.7833 7.81201 20.928 7.95671 20.928 8.13461V23.0626Z" fill="white"/>
<path d="M21.8645 0.492938C21.871 0.365016 21.826 0.234938 21.7283 0.13725C21.6307 0.0395625 21.5006 -0.00548438 21.3727 0.001125C21.3651 0.000796875 21.3577 0 21.35 0H18.514C18.2551 0 18.0453 0.209859 18.0453 0.46875C18.0453 0.727641 18.2551 0.9375 18.514 0.9375H20.2651L15.6312 5.57147L13.8837 3.82397C13.7958 3.73608 13.6766 3.68667 13.5523 3.68667C13.428 3.68667 13.3087 3.73608 13.2208 3.82397L4.79415 12.2507C4.6111 12.4337 4.6111 12.7305 4.79415 12.9136C4.88569 13.0051 5.00565 13.0508 5.1256 13.0508C5.24555 13.0508 5.36555 13.0051 5.45705 12.9135L13.5523 4.81828L15.2998 6.56578C15.4828 6.74883 15.7796 6.74883 15.9627 6.56578L20.9281 1.60045V3.1853C20.9281 3.44419 21.138 3.65405 21.3968 3.65405C21.6557 3.65405 21.8656 3.44419 21.8656 3.1853V0.515625C21.8656 0.507984 21.8648 0.500531 21.8645 0.492938Z" fill="white"/>
<path d="M3.54547 14.6865C3.80435 14.6865 4.01422 14.4767 4.01422 14.2178C4.01422 13.9589 3.80435 13.749 3.54547 13.749C3.28659 13.749 3.07672 13.9589 3.07672 14.2178C3.07672 14.4767 3.28659 14.6865 3.54547 14.6865Z" fill="white"/>
</svg>
