<svg width="24" height="24" viewBox="0 0 24 24" fill="none" xmlns="http://www.w3.org/2000/svg">
<g clip-path="url(#clip0_22:2346)">
<path d="M13.5003 4.18C13.2243 4.18 13.0003 3.956 13.0003 3.68V2C13.0003 1.449 12.5513 1 12.0003 1C11.4493 1 11.0003 1.449 11.0003 2V3.68C11.0003 3.956 10.7763 4.18 10.5003 4.18C10.2243 4.18 10.0003 3.957 10.0003 3.68V2C10.0003 0.897 10.8973 0 12.0003 0C13.1033 0 14.0003 0.897 14.0003 2V3.68C14.0003 3.957 13.7763 4.18 13.5003 4.18Z" fill="#E30613"/>
<path d="M12.0003 24C10.0703 24 8.50031 22.43 8.50031 20.5C8.50031 20.224 8.72431 20 9.00031 20C9.27631 20 9.50031 20.224 9.50031 20.5C9.50031 21.878 10.6223 23 12.0003 23C13.3783 23 14.5003 21.878 14.5003 20.5C14.5003 20.224 14.7243 20 15.0003 20C15.2763 20 15.5003 20.224 15.5003 20.5C15.5003 22.43 13.9303 24 12.0003 24Z" fill="#E30613"/>
<path d="M20.5001 21H3.50012C2.67312 21 2.00012 20.327 2.00012 19.5C2.00012 19.061 2.19112 18.646 2.52512 18.36C4.10112 17.028 5.00012 15.09 5.00012 13.038V10C5.00012 6.14 8.14012 3 12.0001 3C15.8601 3 19.0001 6.14 19.0001 10V13.038C19.0001 15.091 19.8991 17.028 21.4671 18.353C21.8091 18.646 22.0001 19.061 22.0001 19.5C22.0001 20.327 21.3281 21 20.5001 21ZM12.0001 4C8.69112 4 6.00012 6.691 6.00012 10V13.038C6.00012 15.386 4.97212 17.601 3.17912 19.117C3.06412 19.215 3.00012 19.354 3.00012 19.5C3.00012 19.776 3.22412 20 3.50012 20H20.5001C20.7761 20 21.0001 19.776 21.0001 19.5C21.0001 19.354 20.9361 19.215 20.8251 19.12C19.0291 17.601 18.0001 15.385 18.0001 13.038V10C18.0001 6.691 15.3091 4 12.0001 4Z" fill="#E30613"/>
</g>
<defs>
<clipPath id="clip0_22:2346">
<rect width="24" height="24" fill="white"/>
</clipPath>
</defs>
</svg>
