<svg width="28" height="28" viewBox="0 0 28 28" fill="none" xmlns="http://www.w3.org/2000/svg">
<path opacity="0.4" d="M19.7871 0.666504H8.22711C3.70711 0.666504 0.667114 3.83984 0.667114 8.55984V19.4532C0.667114 24.1598 3.70711 27.3332 8.22711 27.3332H19.7871C24.3071 27.3332 27.3338 24.1598 27.3338 19.4532V8.55984C27.3338 3.83984 24.3071 0.666504 19.7871 0.666504Z" fill="#219653"/>
<path d="M12.4179 18.3307C12.1192 18.3307 11.8205 18.2174 11.5925 17.9894L8.42855 14.8254C7.97255 14.3694 7.97255 13.6307 8.42855 13.176C8.88455 12.72 9.62188 12.7187 10.0779 13.1747L12.4179 15.5147L17.9219 10.0107C18.3779 9.5547 19.1152 9.5547 19.5712 10.0107C20.0272 10.4667 20.0272 11.2054 19.5712 11.6614L13.2432 17.9894C13.0152 18.2174 12.7165 18.3307 12.4179 18.3307Z" fill="#219653"/>
</svg>
