<svg width="20" height="24" viewBox="0 0 20 24" fill="none" xmlns="http://www.w3.org/2000/svg">
<path d="M8 21.75C8.12702 22.1827 8.39076 22.5626 8.75175 22.8328C9.11274 23.1031 9.55156 23.2492 10.0025 23.2492C10.4534 23.2492 10.8923 23.1031 11.2532 22.8328C11.6142 22.5626 11.878 22.1827 12.005 21.75" stroke="black" stroke-width="1.5" stroke-linecap="round" stroke-linejoin="round"/>
<path d="M10 3V0.75" stroke="black" stroke-width="1.5" stroke-linecap="round" stroke-linejoin="round"/>
<path d="M10 3C11.9891 3 13.8968 3.79018 15.3033 5.1967C16.7098 6.60322 17.5 8.51088 17.5 10.5C17.5 17.546 19 18.75 19 18.75H1C1 18.75 2.5 16.834 2.5 10.5C2.5 8.51088 3.29018 6.60322 4.6967 5.1967C6.10322 3.79018 8.01088 3 10 3V3Z" stroke="black" stroke-width="1.5" stroke-linecap="round" stroke-linejoin="round"/>
</svg>
