<svg width="18" height="18" viewBox="0 0 18 18" fill="none" xmlns="http://www.w3.org/2000/svg">
<path d="M11.5001 10.5498L17.1925 4.83902C17.5487 4.48094 17.75 3.99186 17.75 3.48143V1.80652C17.75 0.755578 16.9162 0.25 15.8877 0.25H2.11235C1.08383 0.25 0.25 0.755578 0.25 1.80652V3.51151C0.25 3.99477 0.429492 4.46057 0.753338 4.81379L5.9833 10.5197C6.08207 10.6275 6.21977 10.6886 6.36508 10.6896L11.1306 10.7031C11.2683 10.7041 11.4013 10.6498 11.5001 10.5498" fill="#E30613"/>
<path opacity="0.4" d="M6.13818 10.6389V17.0601C6.13818 17.2939 6.25595 17.5142 6.44873 17.6404C6.5589 17.7131 6.68616 17.75 6.81342 17.75C6.90933 17.75 7.00525 17.7296 7.09452 17.6889L10.9503 15.8917C11.1915 15.7801 11.3463 15.5346 11.3463 15.2638V10.6389H6.13818Z" fill="#E30613"/>
</svg>
