<svg width="39" height="39" viewBox="0 0 39 39" fill="none" xmlns="http://www.w3.org/2000/svg">
<path d="M19.5001 38.1522C23.1891 38.1522 26.7953 37.0582 29.8627 35.0087C32.93 32.9592 35.3207 30.0461 36.7325 26.6379C38.1442 23.2296 38.5135 19.4794 37.7938 15.8612C37.0741 12.243 35.2977 8.91949 32.6891 6.31093C30.0806 3.70238 26.7571 1.92588 23.1389 1.20618C19.5208 0.486479 15.7705 0.855877 12.3622 2.26762C8.95398 3.67935 6.04086 6.07003 3.99134 9.13737C1.94181 12.2047 0.8479 15.811 0.8479 19.5001C0.8479 24.4469 2.81305 29.1912 6.31101 32.6892C9.80897 36.1871 14.5532 38.1522 19.5001 38.1522Z" stroke="#E30612" stroke-linecap="round" stroke-linejoin="round"/>
<path d="M23.7393 27.9782H21.1958C20.7461 27.9782 20.3149 27.7996 19.9969 27.4816C19.6789 27.1636 19.5002 26.7322 19.5002 26.2825V15.2608C19.5002 15.0359 19.4109 14.8203 19.2519 14.6614C19.0929 14.5024 18.8772 14.413 18.6524 14.413H16.1089" stroke="#E30612" stroke-linecap="round" stroke-linejoin="round"/>
<path d="M19.0763 10.1738C18.9638 10.1738 18.856 10.2185 18.7765 10.298C18.697 10.3775 18.6523 10.4853 18.6523 10.5977C18.6523 10.7102 18.697 10.818 18.7765 10.8975C18.856 10.977 18.9638 11.0217 19.0763 11.0217C19.1887 11.0217 19.2965 10.977 19.376 10.8975C19.4555 10.818 19.5002 10.7102 19.5002 10.5977C19.5002 10.4853 19.4555 10.3775 19.376 10.298C19.2965 10.2185 19.1887 10.1738 19.0763 10.1738Z" stroke="#E30612" stroke-linecap="round" stroke-linejoin="round"/>
</svg>
