<svg width="28" height="27" viewBox="0 0 28 27" fill="none" xmlns="http://www.w3.org/2000/svg">
<path d="M24 10.5C24 10.7652 23.8946 11.0196 23.7071 11.2071C23.5196 11.3946 23.2652 11.5 23 11.5H10.5L6 15.5V11.5H2C1.73478 11.5 1.48044 11.3946 1.29291 11.2071C1.10537 11.0196 1 10.7652 1 10.5V4.5C1 4.23478 1.10537 3.98044 1.29291 3.79291C1.48044 3.60537 1.73478 3.5 2 3.5H23C23.2652 3.5 23.5196 3.60537 23.7071 3.79291C23.8946 3.98044 24 4.23478 24 4.5V10.5Z" stroke="#E30612" stroke-linecap="round" stroke-linejoin="round"/>
<path d="M3.5 14.5H2C1.73478 14.5 1.48044 14.6054 1.29291 14.7929C1.10537 14.9804 1 15.2348 1 15.5V21.5C1 21.7652 1.10537 22.0196 1.29291 22.2071C1.48044 22.3946 1.73478 22.5 2 22.5H14.5L19 26.5V22.5H23C23.2652 22.5 23.5196 22.3946 23.7071 22.2071C23.8946 22.0196 24 21.7652 24 21.5V15.5C24 15.2348 23.8946 14.9804 23.7071 14.7929C23.5196 14.6054 23.2652 14.5 23 14.5H11" stroke="#E30612" stroke-linecap="round" stroke-linejoin="round"/>
<path fill-rule="evenodd" clip-rule="evenodd" d="M24 8C26.2091 8 28 6.20914 28 4C28 1.79086 26.2091 0 24 0C21.7909 0 20 1.79086 20 4C20 6.20914 21.7909 8 24 8Z" fill="#FF0000"/>
</svg>
