<svg width="32" height="32" viewBox="0 0 32 32" fill="none" xmlns="http://www.w3.org/2000/svg">
<g id="Iconly/Bulk/Tick Square">
<g id="Tick Square">
<path id="Fill 1" opacity="0.4" d="M21.7871 2.6665H10.2271C5.70711 2.6665 2.66711 5.83984 2.66711 10.5598V21.4532C2.66711 26.1598 5.70711 29.3332 10.2271 29.3332H21.7871C26.3071 29.3332 29.3338 26.1598 29.3338 21.4532V10.5598C29.3338 5.83984 26.3071 2.6665 21.7871 2.6665Z" fill="#F2994A"/>
</g>
<g id="loading 1" clip-path="url(#clip0_22:2279)">
<g id="Group">
<g id="Group_2">
<path id="Vector" d="M16.4215 11.2107C17.5843 11.2107 18.5269 10.2681 18.5269 9.10535C18.5269 7.9426 17.5843 7 16.4215 7C15.2588 7 14.3162 7.9426 14.3162 9.10535C14.3162 10.2681 15.2588 11.2107 16.4215 11.2107Z" fill="#F2994A"/>
<path id="Vector_2" d="M16.4215 25C17.1191 25 17.6846 24.4345 17.6846 23.737C17.6846 23.0394 17.1191 22.4739 16.4215 22.4739C15.7239 22.4739 15.1584 23.0394 15.1584 23.737C15.1584 24.4345 15.7239 25 16.4215 25Z" fill="#F2994A"/>
<path id="Vector_3" d="M11.2483 13.1424C12.2949 13.1424 13.1433 12.294 13.1433 11.2475C13.1433 10.2009 12.2949 9.35254 11.2483 9.35254C10.2018 9.35254 9.35339 10.2009 9.35339 11.2475C9.35339 12.294 10.2018 13.1424 11.2483 13.1424Z" fill="#F2994A"/>
<path id="Vector_4" d="M21.5947 22.6459C22.176 22.6459 22.6473 22.1746 22.6473 21.5932C22.6473 21.0118 22.176 20.5405 21.5947 20.5405C21.0133 20.5405 20.542 21.0118 20.542 21.5932C20.542 22.1746 21.0133 22.6459 21.5947 22.6459Z" fill="#F2994A"/>
<path id="Vector_5" d="M9.10538 18.1053C10.0354 18.1053 10.7893 17.3514 10.7893 16.4214C10.7893 15.4914 10.0354 14.7375 9.10538 14.7375C8.1754 14.7375 7.42151 15.4914 7.42151 16.4214C7.42151 17.3514 8.1754 18.1053 9.10538 18.1053Z" fill="#F2994A"/>
<path id="Vector_6" d="M23.737 17.2623C24.2018 17.2623 24.5786 16.8855 24.5786 16.4207C24.5786 15.9559 24.2018 15.5791 23.737 15.5791C23.2722 15.5791 22.8954 15.9559 22.8954 16.4207C22.8954 16.8855 23.2722 17.2623 23.737 17.2623Z" fill="#F2994A"/>
<path id="Vector_7" d="M10.2066 20.5529C9.63069 21.1287 9.63069 22.0605 10.2066 22.6364C10.7817 23.2122 11.7149 23.2122 12.29 22.6364C12.8659 22.0605 12.8659 21.1287 12.29 20.5529C11.7149 19.9763 10.7824 19.9709 10.2066 20.5529Z" fill="#F2994A"/>
<path id="Vector_8" d="M21.5941 11.8788C21.9427 11.8788 22.2253 11.5962 22.2253 11.2477C22.2253 10.8991 21.9427 10.6165 21.5941 10.6165C21.2455 10.6165 20.9629 10.8991 20.9629 11.2477C20.9629 11.5962 21.2455 11.8788 21.5941 11.8788Z" fill="#F2994A"/>
</g>
</g>
</g>
</g>
<defs>
<clipPath id="clip0_22:2279">
<rect width="17.9993" height="18" fill="white" transform="translate(7 7)"/>
</clipPath>
</defs>
</svg>
