<svg width="140" height="140" viewBox="0 0 140 140" fill="none" xmlns="http://www.w3.org/2000/svg">
<g clip-path="url(#clip0_22:11470)">
<path d="M112.727 70.4692C112.727 78.8432 110.241 86.9868 105.539 94.0201C104.9 94.9763 103.85 95.4928 102.781 95.4928C102.148 95.4928 101.508 95.3122 100.942 94.9335C99.4199 93.9166 99.0114 91.858 100.028 90.3361C104 84.3967 106.098 77.5271 106.098 70.4692C106.098 67.4364 105.719 64.4243 104.971 61.5177C104.514 59.7453 105.582 57.9379 107.354 57.4815C109.128 57.0258 110.934 58.0926 111.391 59.865C112.277 63.3115 112.727 66.879 112.727 70.4692ZM88.8196 101.11C83.2525 104.482 76.8496 106.265 70.303 106.265C50.5656 106.265 34.5076 90.2066 34.5076 70.4692C34.5076 50.7317 50.5656 34.6737 70.303 34.6737C77.6109 34.6737 84.6378 36.8604 90.6251 40.9976C92.1308 42.0379 94.1951 41.6605 95.2361 40.1548C96.2764 38.649 95.8996 36.5847 94.3932 35.5437C87.2932 30.6382 78.9632 28.0449 70.303 28.0449C58.9713 28.0449 48.3173 32.4579 40.3045 40.4707C32.2917 48.4835 27.8788 59.1374 27.8788 70.4692C27.8788 81.8009 32.2917 92.4549 40.3045 100.468C48.3173 108.48 58.9713 112.893 70.303 112.893C78.0608 112.893 85.6515 110.779 92.2544 106.779C93.8203 105.831 94.3207 103.793 93.3724 102.227C92.4234 100.661 90.3855 100.161 88.8196 101.11ZM70.6228 80.0796C70.0978 80.1003 69.6078 79.9139 69.2271 79.5514L51.8687 63.0927C50.5403 61.833 48.4423 61.8886 47.1832 63.217C45.9235 64.5453 45.9791 66.6434 47.3075 67.9025L64.6627 84.3585C66.2656 85.8824 68.339 86.7097 70.5361 86.7097C70.6539 86.7097 70.7717 86.7071 70.8895 86.7026C73.2167 86.6087 75.3542 85.6014 76.9079 83.8659C76.9474 83.8225 76.9849 83.7779 77.0218 83.7319L111.996 40.2305C113.143 38.8038 112.916 36.7174 111.49 35.5709C110.063 34.4238 107.976 34.6504 106.829 36.0771L71.924 79.4938C71.5809 79.8517 71.1213 80.0595 70.6228 80.0796Z" fill="#219653"/>
</g>
<circle cx="70" cy="70" r="70" fill="#27AE5F" fill-opacity="0.4"/>
<defs>
<clipPath id="clip0_22:11470">
<rect width="84.8485" height="84.8485" fill="white" transform="translate(27.8788 27.8789)"/>
</clipPath>
</defs>
</svg>
